<?xml version="1.0" encoding="UTF-8"?>
<!DOCTYPE svg PUBLIC "-//W3C//DTD SVG 1.1//EN" "http://www.w3.org/Graphics/SVG/1.1/DTD/svg11.dtd">
<!-- Creator: CorelDRAW -->
<svg xmlns="http://www.w3.org/2000/svg" xml:space="preserve" width="2048px" height="2048px" style="shape-rendering:geometricPrecision; text-rendering:geometricPrecision; image-rendering:optimizeQuality; fill-rule:evenodd; clip-rule:evenodd"
viewBox="0 0 2048 2048"
 xmlns:xlink="http://www.w3.org/1999/xlink">
 <defs>
  <style type="text/css">
   <![CDATA[
    .fil2 {fill:none}
    .fil1 {fill:#00897B}
    .fil3 {fill:#00B0FF}
    .fil0 {fill:#4DB6AC}
    .fil4 {fill:#4FC3F7}
    .fil5 {fill:#E0F2F1;fill-rule:nonzero}
   ]]>
  </style>
   <clipPath id="id0">
    <path d="M1024 -0.0011811c565.539,0 1024,458.462 1024,1024 0,565.539 -458.462,1024 -1024,1024 -565.539,0 -1024,-458.462 -1024,-1024 0,-565.539 458.462,-1024 1024,-1024z"/>
   </clipPath>
 </defs>
 <g id="Layer_x0020_1">
  <metadata id="CorelCorpID_0Corel-Layer"/>
  <path class="fil0" d="M1024 -0.0011811c565.539,0 1024,458.462 1024,1024 0,565.539 -458.462,1024 -1024,1024 -565.539,0 -1024,-458.462 -1024,-1024 0,-565.539 458.462,-1024 1024,-1024z"/>
  <g style="clip-path:url(#id0)">
   <g id="_466492520">
    <g>
     <polygon id="_3967955921" class="fil1" points="1066.73,590.095 2202.61,1725.98 2205.61,1729.3 2208.58,1732.7 2211.5,1736.18 2214.39,1739.73 2217.24,1743.36 2220.05,1747.06 2222.82,1750.84 2225.55,1754.69 2228.24,1758.62 2230.88,1762.63 2233.48,1766.71 2236.04,1770.88 2238.55,1775.12 2241.01,1779.43 2243.43,1783.83 2245.8,1788.3 2248.12,1792.85 2250.39,1797.48 2252.61,1802.19 1116.73,666.305 1114.51,661.597 1112.24,656.967 1109.92,652.417 1107.55,647.944 1105.13,643.549 1102.67,639.233 1100.16,634.993 1097.6,630.832 1095,626.747 1092.36,622.739 1089.67,618.808 1086.94,614.953 1084.17,611.176 1081.36,607.473 1078.51,603.847 1075.62,600.296 1072.69,596.821 1069.73,593.421 "/>
     <polygon id="_396814888" class="fil1" points="1331.47,730.954 2467.35,1866.84 2473.75,1874.18 2479.98,1881.9 2486.05,1890.02 2491.96,1898.51 2497.71,1907.4 2503.3,1916.68 2508.73,1926.34 1372.85,790.462 1367.42,780.793 1361.83,771.516 1356.08,762.63 1350.17,754.133 1344.1,746.023 1337.86,738.297 "/>
     <polygon id="_396821944" class="fil1" points="1523.91,875.519 2659.79,2011.4 2666.67,2019.69 2673.17,2028.29 2679.31,2037.19 2685.05,2046.38 2690.4,2055.85 2695.34,2065.61 2699.86,2075.63 2703.95,2085.92 2707.59,2096.46 2710.79,2107.25 2713.52,2118.29 2715.78,2129.56 2717.56,2141.05 2718.84,2152.77 2719.62,2164.69 2719.88,2176.83 2719.56,2189.82 2718.61,2202.65 2717.05,2215.29 2714.89,2227.74 2712.15,2239.96 2708.84,2251.96 2704.98,2263.71 2700.58,2275.19 2695.67,2286.39 2690.24,2297.3 2684.33,2307.89 2677.95,2318.16 2671.11,2328.08 2663.82,2337.64 2656.11,2346.82 2647.99,2355.62 2639.47,2364 2630.57,2371.96 2621.3,2379.48 2611.69,2386.54 2601.74,2393.13 2591.47,2399.22 2580.9,2404.82 2570.05,2409.89 2558.92,2414.43 2547.53,2418.42 2535.91,2421.83 2524.06,2424.66 2512,2426.89 2499.75,2428.5 2487.31,2429.48 2474.72,2429.81 1338.84,1293.93 1351.43,1293.6 1363.87,1292.62 1376.12,1291.01 1388.18,1288.78 1400.03,1285.95 1411.65,1282.53 1423.04,1278.55 1434.17,1274.01 1445.02,1268.94 1455.59,1263.34 1465.86,1257.24 1475.81,1250.65 1485.42,1243.59 1494.68,1236.08 1503.58,1228.12 1512.1,1219.73 1520.23,1210.94 1527.94,1201.76 1535.23,1192.2 1542.07,1182.27 1548.45,1172.01 1554.36,1161.42 1559.78,1150.51 1564.7,1139.31 1569.1,1127.82 1572.96,1116.08 1576.27,1104.08 1579.01,1091.85 1581.17,1079.41 1582.73,1066.77 1583.68,1053.94 1584,1040.94 1583.74,1028.81 1582.96,1016.88 1581.68,1005.17 1579.9,993.673 1577.64,982.404 1574.91,971.371 1571.71,960.578 1568.06,950.036 1563.98,939.748 1559.46,929.726 1554.52,919.972 1549.17,910.497 1543.43,901.307 1537.29,892.41 1530.78,883.811 "/>
     <polygon id="_396827968" class="fil1" points="1338.84,1293.93 2474.72,2429.81 2159.98,2429.81 1024.09,1293.93 "/>
     <polygon id="_396822448" class="fil1" points="1024.09,1293.93 2159.98,2429.81 2159.88,2429.81 1024,1293.93 "/>
     <polygon id="_396807856" class="fil1" points="1024,1293.93 2159.88,2429.81 1981.06,2429.81 845.174,1293.93 "/>
     <polygon id="_396807400" class="fil1" points="798.506,1293.93 1934.39,2429.81 1844.51,2429.81 1818.55,2428.58 1793.88,2424.98 1770.52,2419.14 1748.52,2411.23 1727.9,2401.38 1708.7,2389.72 1690.95,2376.42 555.069,1240.54 572.822,1253.84 592.023,1265.49 612.641,1275.35 634.641,1283.26 657.994,1289.09 682.666,1292.7 708.628,1293.93 "/>
     <polygon id="_396823144" class="fil1" points="968.676,1320.71 2104.56,2456.59 2137.55,2489.59 1001.67,1353.7 "/>
     <polygon id="_396818128" class="fil1" points="675.004,1320.71 1810.89,2456.59 1934.39,2580.09 798.506,1444.21 "/>
     <polygon id="_396811288" class="fil1" points="845.174,1293.93 1981.06,2429.81 1981.06,2580.09 845.174,1444.21 "/>
     <polygon id="_396826456" class="fil1" points="1001.67,1353.7 2137.55,2489.59 1957.72,2669.42 821.84,1533.54 "/>
    </g>
    <path id="_466489856" class="fil1" d="M674.457 789.87c-18.3319,-233.732 200.648,-337.966 349.543,-236.842l0.796064 0.549213c36.3674,24.9201 68.5241,62.0871 91.9312,112.728 114.98,-19.0099 199.023,18.9201 256.123,124.156 121.286,23.3374 211.151,119.988 211.151,250.482 0,139.458 -110.006,252.985 -245.162,252.985l-314.745 0 -0.0944883 0 -178.826 0 0 150.282 123.502 -123.501 32.9953 32.9941 -179.831 179.831 -179.83 -179.831 32.9941 -32.9941 123.502 123.501 0 -150.282 -89.8784 0c-283.68,0 -352.873,-429.032 -34.1705,-504.059z"/>
   </g>
  </g>
  <path class="fil2" d="M1024 -0.0011811c565.539,0 1024,458.462 1024,1024 0,565.539 -458.462,1024 -1024,1024 -565.539,0 -1024,-458.462 -1024,-1024 0,-565.539 458.462,-1024 1024,-1024z"/>
  <path class="fil3" d="M1024 553.028c-148.895,-101.124 -367.875,3.10984 -349.543,236.842 -318.703,75.0272 -249.509,504.059 34.1705,504.059l315.372 0 0 -740.901z"/>
  <path class="fil4" d="M1338.84 1293.93c135.156,0 245.162,-113.528 245.162,-252.985 0,-130.494 -89.8642,-227.145 -211.151,-250.482 -57.1004,-105.236 -141.143,-143.166 -256.123,-124.156 -23.4071,-50.641 -55.5638,-87.8079 -91.9312,-112.728l-0.796064 -0.549213 0 740.901 0.0944883 0 314.745 0z"/>
  <polygon class="fil5" points="642.01,1353.7 821.84,1533.54 1001.67,1353.7 968.676,1320.71 845.174,1444.21 845.174,963.874 798.506,963.874 798.506,1444.21 675.004,1320.71 "/>
 </g>
</svg>
